<svg width="20" height="18" viewBox="0 0 20 18" fill="none" xmlns="http://www.w3.org/2000/svg">
<path d="M17.6816 2.25003H15.0848L13.8098 0.337531C13.7419 0.232964 13.6488 0.14721 13.539 0.0882137C13.4292 0.0292171 13.3063 -0.0011137 13.1816 3.12535e-05H7.18164C7.057 -0.0011137 6.93409 0.0292171 6.82429 0.0882137C6.71449 0.14721 6.62136 0.232964 6.55352 0.337531L5.27852 2.25003H2.68164C2.08566 2.2525 1.5148 2.49034 1.09338 2.91177C0.671954 3.33319 0.434108 3.90405 0.431641 4.50003V15C0.434108 15.596 0.671954 16.1669 1.09338 16.5883C1.5148 17.0097 2.08566 17.2476 2.68164 17.25H17.6816C18.2776 17.2476 18.8485 17.0097 19.2699 16.5883C19.6913 16.1669 19.9292 15.596 19.9316 15V4.50003C19.9292 3.90405 19.6913 3.33319 19.2699 2.91177C18.8485 2.49034 18.2776 2.2525 17.6816 2.25003ZM18.4316 15C18.4316 15.1989 18.3526 15.3897 18.212 15.5304C18.0713 15.671 17.8806 15.75 17.6816 15.75H2.68164C2.48273 15.75 2.29196 15.671 2.15131 15.5304C2.01066 15.3897 1.93164 15.1989 1.93164 15V4.50003C1.93164 4.30112 2.01066 4.11035 2.15131 3.9697C2.29196 3.82905 2.48273 3.75003 2.68164 3.75003H5.68164C5.80628 3.75118 5.92919 3.72085 6.03899 3.66185C6.14879 3.60285 6.24193 3.5171 6.30977 3.41253L7.58477 1.50003H12.7785L14.0535 3.41253C14.1214 3.5171 14.2145 3.60285 14.3243 3.66185C14.4341 3.72085 14.557 3.75118 14.6816 3.75003H17.6816C17.8806 3.75003 18.0713 3.82905 18.212 3.9697C18.3526 4.11035 18.4316 4.30112 18.4316 4.50003V15ZM10.1816 5.25003C9.36579 5.25003 8.56827 5.49196 7.88991 5.94522C7.21156 6.39848 6.68285 7.04272 6.37064 7.79646C6.05843 8.55021 5.97674 9.37961 6.1359 10.1798C6.29507 10.98 6.68793 11.715 7.26482 12.2918C7.84172 12.8687 8.57672 13.2616 9.37689 13.4208C10.1771 13.5799 11.0065 13.4982 11.7602 13.186C12.514 12.8738 13.1582 12.3451 13.6115 11.6668C14.0647 10.9884 14.3066 10.1909 14.3066 9.37503C14.3066 8.28101 13.872 7.2318 13.0985 6.45822C12.3249 5.68463 11.2757 5.25003 10.1816 5.25003ZM10.1816 12C9.66247 12 9.15495 11.8461 8.72327 11.5576C8.29159 11.2692 7.95514 10.8592 7.75646 10.3796C7.55778 9.89992 7.50579 9.37212 7.60708 8.86292C7.70837 8.35372 7.95837 7.88599 8.32549 7.51888C8.6926 7.15176 9.16033 6.90176 9.66953 6.80047C10.1787 6.69918 10.7065 6.75117 11.1862 6.94985C11.6658 7.14853 12.0758 7.48498 12.3642 7.91666C12.6527 8.34834 12.8066 8.85586 12.8066 9.37503C12.8042 10.0705 12.5268 10.7367 12.0351 11.2285C11.5433 11.7202 10.8771 11.9976 10.1816 12Z" fill="black"/>
</svg>
