<svg width="50" height="34" viewBox="0 0 50 34" fill="none" xmlns="http://www.w3.org/2000/svg">
<path d="M34.3417 16.9502L47.1562 5.81683V27.9564L34.3417 16.9502ZM17.8292 18.8356L22.3292 22.7418C23.0354 23.3418 23.9562 23.7043 24.9625 23.7043H24.9979H25.025C26.0333 23.7043 26.9542 23.3397 27.6687 22.7356L27.6625 22.7397L32.1625 18.8335L45.8417 30.5814H4.15625L17.8292 18.8356ZM4.1375 3.17725H45.8667L25.8229 20.5856C25.5976 20.7638 25.3186 20.8607 25.0312 20.8606H25.0021H24.975C24.6866 20.8609 24.4067 20.7632 24.1812 20.5835L24.1833 20.5856L4.1375 3.17725ZM2.84375 5.81475L15.6562 16.9481L2.84375 27.9481V5.81475ZM47.8438 0.72933C47.3438 0.47933 46.7562 0.333496 46.1333 0.333496H3.87292C3.26908 0.33364 2.67355 0.474143 2.13333 0.743913L2.15625 0.733496C1.50953 1.05248 0.964891 1.54595 0.583863 2.15817C0.202835 2.7704 0.000598642 3.47697 0 4.19808L0 29.5564C0.00110292 30.5827 0.409276 31.5666 1.13496 32.2923C1.86064 33.018 2.84456 33.4261 3.87083 33.4272H46.1271C47.1534 33.4261 48.1373 33.018 48.863 32.2923C49.5886 31.5666 49.9968 30.5827 49.9979 29.5564V4.19808C49.9979 2.6835 49.125 1.371 47.8542 0.739746L47.8312 0.72933H47.8438Z" fill="black"/>
</svg>
