<svg width="30" height="30" viewBox="0 0 30 30" fill="none" xmlns="http://www.w3.org/2000/svg">
<path d="M16.875 11.25V9.01758C16.875 8.00977 17.0977 7.5 18.6621 7.5H20.625V3.75H17.3496C13.3359 3.75 12.0117 5.58984 12.0117 8.74805V11.25H9.375V15H12.0117V26.25H16.875V15H20.1797L20.625 11.25H16.875ZM19.3477 14.0625H16.9395H15.9375V14.9707V25.3125H12.9492V14.9707V14.0625H12.0762H10.3125V12.1875H12.0762H12.9492V11.2207V8.74805C12.9492 7.3125 13.2656 6.33398 13.8574 5.71289C14.5137 5.00977 15.6797 4.6875 17.3496 4.6875H19.6875V6.5625H18.6621C17.959 6.5625 17.0508 6.62695 16.4883 7.24805C16.0137 7.77539 15.9375 8.42578 15.9375 9.01172V11.2148V12.1875H16.9395H19.5703L19.3477 14.0625Z" fill="white"/>
</svg>
