<svg width="50" height="50" viewBox="0 0 50 50" fill="none" xmlns="http://www.w3.org/2000/svg">
<path d="M25.0001 4.1665C13.4938 4.1665 4.16675 13.4936 4.16675 24.9998C4.16675 36.5061 13.4938 45.8332 25.0001 45.8332C36.5063 45.8332 45.8334 36.5061 45.8334 24.9998C45.8334 13.4936 36.5063 4.1665 25.0001 4.1665Z" fill="url(#paint0_linear_372_592)"/>
<path d="M27.8199 30.5217H33.2115L34.0584 25.0447H27.8199V22.0509C27.8199 19.7759 28.5636 17.7582 30.6918 17.7582H34.1115V12.979C33.5105 12.8978 32.2397 12.7207 29.8386 12.7207C24.824 12.7207 21.8845 15.3686 21.8845 21.402V25.0457H16.7292V30.5228H21.8834V45.577C22.9042 45.729 23.9386 45.8332 25.0001 45.8332C25.9595 45.8332 26.8959 45.7457 27.8199 45.6207V30.5217Z" fill="white"/>
<defs>
<linearGradient id="paint0_linear_372_592" x1="10.4095" y1="10.4092" x2="42.3074" y2="42.3071" gradientUnits="userSpaceOnUse">
<stop stop-color="#2AA4F4"/>
<stop offset="1" stop-color="#007AD9"/>
</linearGradient>
</defs>
</svg>
