<svg width="20" height="19" viewBox="0 0 20 19" fill="none" xmlns="http://www.w3.org/2000/svg">
<path d="M11.1719 7.28125V5.88599C11.1719 5.2561 11.311 4.9375 12.2888 4.9375H13.5156V2.59375H11.4685C8.95996 2.59375 8.13232 3.74365 8.13232 5.71753V7.28125H6.48438V9.625H8.13232V16.6562H11.1719V9.625H13.2373L13.5156 7.28125H11.1719ZM12.7173 9.03906H11.2122H10.5859V9.60669V16.0703H8.71826V9.60669V9.03906H8.17261H7.07031V7.86719H8.17261H8.71826V7.26294V5.71753C8.71826 4.82031 8.91602 4.20874 9.28589 3.82056C9.69604 3.3811 10.4248 3.17969 11.4685 3.17969H12.9297V4.35156H12.2888C11.8494 4.35156 11.2817 4.39185 10.9302 4.78003C10.6335 5.10962 10.5859 5.51611 10.5859 5.88232V7.25928V7.86719H11.2122H12.8564L12.7173 9.03906Z" fill="#333333"/>
</svg>
