<svg width="24" height="24" viewBox="0 0 24 24" fill="none" xmlns="http://www.w3.org/2000/svg">
<path fill-rule="evenodd" clip-rule="evenodd" d="M13.4723 1.56869L15.9089 6.43636C16.1477 6.91422 16.6086 7.24558 17.1431 7.32226L22.5938 8.10684C23.9405 8.30127 24.4764 9.93341 23.5018 10.8686L19.5602 14.6559C19.1729 15.0284 18.9966 15.5637 19.0882 16.0895L20.0184 21.4364C20.2475 22.7591 18.8397 23.7683 17.636 23.1425L12.7643 20.6163C12.2867 20.3684 11.7147 20.3684 11.2357 20.6163L6.36401 23.1425C5.16031 23.7683 3.75253 22.7591 3.98299 21.4364L4.91179 16.0895C5.00343 15.5637 4.82711 15.0284 4.43976 14.6559L0.49824 10.8686C-0.47638 9.93341 0.0595223 8.30127 1.40622 8.10684L6.85687 7.32226C7.39138 7.24558 7.8537 6.91422 8.0925 6.43636L10.5277 1.56869C11.1302 0.365124 12.8698 0.365124 13.4723 1.56869Z" fill="#FF9D55"/>
</svg>
