<svg width="38" height="26" viewBox="0 0 38 26" fill="none" xmlns="http://www.w3.org/2000/svg">
<path d="M0.666504 25.6667V0.666668H3.99984V17.3333H17.3332V4H30.6665C32.4998 4 34.0693 4.65278 35.3748 5.95833C36.6804 7.26389 37.3332 8.83333 37.3332 10.6667V25.6667H33.9998V20.6667H3.99984V25.6667H0.666504ZM10.6665 15.6667C9.27762 15.6667 8.09706 15.1806 7.12484 14.2083C6.15262 13.2361 5.6665 12.0556 5.6665 10.6667C5.6665 9.27778 6.15262 8.09722 7.12484 7.125C8.09706 6.15278 9.27762 5.66667 10.6665 5.66667C12.0554 5.66667 13.2359 6.15278 14.2082 7.125C15.1804 8.09722 15.6665 9.27778 15.6665 10.6667C15.6665 12.0556 15.1804 13.2361 14.2082 14.2083C13.2359 15.1806 12.0554 15.6667 10.6665 15.6667ZM20.6665 17.3333H33.9998V10.6667C33.9998 9.75 33.6737 8.965 33.0215 8.31167C32.3682 7.65945 31.5832 7.33333 30.6665 7.33333H20.6665V17.3333ZM10.6665 12.3333C11.1387 12.3333 11.5348 12.1733 11.8548 11.8533C12.1737 11.5344 12.3332 11.1389 12.3332 10.6667C12.3332 10.1944 12.1737 9.79833 11.8548 9.47833C11.5348 9.15944 11.1387 9 10.6665 9C10.1943 9 9.79817 9.15944 9.47817 9.47833C9.15928 9.79833 8.99984 10.1944 8.99984 10.6667C8.99984 11.1389 9.15928 11.5344 9.47817 11.8533C9.79817 12.1733 10.1943 12.3333 10.6665 12.3333Z" fill="#333333"/>
</svg>
