<svg width="16" height="16" viewBox="0 0 16 16" fill="none" xmlns="http://www.w3.org/2000/svg">
<g clip-path="url(#clip0_510_1566)">
<path d="M8 10.3438C9.29442 10.3438 10.3438 9.29442 10.3438 8C10.3438 6.70558 9.29442 5.65625 8 5.65625C6.70558 5.65625 5.65625 6.70558 5.65625 8C5.65625 9.29442 6.70558 10.3438 8 10.3438Z" stroke="#333333" stroke-linecap="round" stroke-linejoin="round"/>
<path d="M10.5781 2.60938H5.42188C3.86857 2.60938 2.60938 3.86857 2.60938 5.42188V10.5781C2.60938 12.1314 3.86857 13.3906 5.42188 13.3906H10.5781C12.1314 13.3906 13.3906 12.1314 13.3906 10.5781V5.42188C13.3906 3.86857 12.1314 2.60938 10.5781 2.60938Z" stroke="#333333" stroke-linecap="round" stroke-linejoin="round"/>
<path d="M11.0469 5.42188C11.3058 5.42188 11.5156 5.21201 11.5156 4.95312C11.5156 4.69424 11.3058 4.48438 11.0469 4.48438C10.788 4.48438 10.5781 4.69424 10.5781 4.95312C10.5781 5.21201 10.788 5.42188 11.0469 5.42188Z" fill="#333333"/>
</g>
<defs>
<clipPath id="clip0_510_1566">
<rect width="15" height="15" fill="white" transform="translate(0.5 0.5)"/>
</clipPath>
</defs>
</svg>
