<svg width="36" height="36" viewBox="0 0 36 36" fill="none" xmlns="http://www.w3.org/2000/svg">
<path d="M22.4178 11.7145L22.4181 11.7144L22.5255 12.3012L22.526 12.3042L22.5259 12.3042L22.5255 12.3023L22.4178 11.7145ZM22.4178 11.7145C22.092 11.7742 21.876 12.0868 21.9357 12.4126C21.9357 12.4128 21.9358 12.413 21.9358 12.4132C21.9891 12.7021 22.2416 12.9046 22.5255 12.9046C22.5611 12.9046 22.5973 12.9013 22.6338 12.8948L22.5259 12.3051L22.5258 12.3045L22.5255 12.3045L21.9358 12.4126L22.5255 12.3043L22.5257 12.3043L22.5255 12.3031L22.4178 11.7145ZM22.6341 12.8947C22.6341 12.8947 22.6341 12.8947 22.6341 12.8947L22.526 12.3051L22.5259 12.3045L22.5261 12.3044L22.5262 12.305L22.6341 12.8947ZM22.6341 12.8947L23.8044 12.6806L23.8047 12.6805M22.6341 12.8947L22.5277 12.3047L22.5276 12.3041L23.6963 12.09L23.6965 12.09L23.6966 12.0906L23.8047 12.6805M23.8047 12.6805C23.8047 12.6805 23.8048 12.6805 23.8048 12.6805C24.1306 12.6207 24.3465 12.3082 24.2868 11.9824C24.2868 11.9822 24.2867 11.982 24.2867 11.9818L23.6966 12.0899L23.6967 12.0905L23.7417 12.3364L23.7418 12.3365L23.8047 12.6805ZM23.6964 12.0893L23.6962 12.0894L22.5276 12.3039L22.5255 12.2925L22.4212 11.7139L22.5255 11.6948L23.5884 11.5003C23.5884 11.5003 23.5884 11.5003 23.5884 11.5003L23.6351 11.7552L23.6352 11.7556L23.6964 12.0893ZM24.2865 11.981L23.6965 12.0893L23.5887 11.5003C23.9169 11.4402 24.2262 11.6561 24.2865 11.981Z" fill="#FF9D55" stroke="#FF9D55" stroke-width="5"/>
<path d="M29.7426 21.7684C29.5707 21.658 29.3547 21.6421 29.169 21.727C29.1426 21.739 27.5517 22.4497 24.8094 23.0242C24.7908 22.9018 24.7626 22.7806 24.7161 22.6642L23.6022 19.8595C23.4465 19.468 23.4393 18.7522 23.5866 18.3571L24.6681 15.4579C24.7797 15.1594 25.1862 14.8771 25.5045 14.8771H27.1176C27.9348 14.8771 28.7883 14.3158 29.1033 13.5715C29.3865 12.9022 29.2047 12.0871 28.6995 11.5663L28.9164 11.5267C29.2425 11.467 29.4585 11.1544 29.3988 10.8286C29.3391 10.5028 29.0265 10.2865 28.7007 10.3465L27.5841 10.5508C27.5064 10.5649 27.4356 10.5943 27.3729 10.6339L25.8324 9.61235C25.2636 9.23495 24.2838 8.93945 23.601 8.93945H23.4333H21.2145C20.8833 8.93945 20.6145 9.20825 20.6145 9.53945C20.6145 9.87065 20.8833 10.1395 21.2145 10.1395H21.4077C21.4005 10.1524 21.3903 10.1644 21.3837 10.1773L21.1926 10.5406H20.0058C19.6746 10.5406 19.4058 10.8094 19.4058 11.1406C19.4058 11.4718 19.6746 11.7406 20.0058 11.7406H20.562L19.9716 12.8635C19.8117 13.1674 19.3374 13.4524 18.9942 13.4524C18.9927 13.4524 18.9909 13.4524 18.9894 13.4524L16.6443 13.4305C16.3179 13.4389 16.0419 13.6939 16.0386 14.0248C16.0353 14.356 16.3017 14.6272 16.6329 14.6305L18.9792 14.6524C18.9837 14.6524 18.9879 14.6524 18.9924 14.6524C19.7877 14.6524 20.6628 14.1256 21.0333 13.4221L22.4454 10.7356C22.6068 10.429 23.0868 10.1392 23.433 10.1392H23.6007C24.0564 10.1392 24.789 10.36 25.1688 10.612L27.7524 12.3253C27.987 12.4813 28.104 12.8521 27.9975 13.1035C27.8727 13.3981 27.4449 13.6768 27.1167 13.6768H25.5036C24.6894 13.6768 23.8284 14.2744 23.5431 15.0376L22.4613 17.9371C22.2087 18.6142 22.2192 19.6309 22.4862 20.302L23.5998 23.1064C23.6181 23.1514 23.6259 23.1994 23.628 23.2477C23.3394 23.2972 23.0412 23.344 22.7334 23.3884L22.0143 21.5911C21.7137 20.8402 20.8449 20.2522 20.0361 20.2522H15.0282C14.2176 20.2522 13.3521 20.8078 13.0152 21.5443L12.2067 23.3095C11.8401 23.2486 11.4906 23.1838 11.1615 23.1157L12.9633 18.2896C13.1382 17.8219 13.1334 17.3257 12.9504 16.9282C12.8112 16.6261 12.5742 16.4011 12.2832 16.2952C11.6136 16.0516 10.785 16.4803 10.3935 17.2705L9.50727 19.0582C9.38997 19.2946 9.08127 19.4392 8.85987 19.3615C8.76057 19.3267 8.71227 19.2562 8.68947 19.2037C8.64837 19.1098 8.65167 18.9982 8.69877 18.8893L10.3026 15.1777C10.4325 14.8777 10.8627 14.596 11.1903 14.596C11.1918 14.596 11.1933 14.596 11.1948 14.596L14.088 14.6173C14.0895 14.6173 14.091 14.6173 14.0925 14.6173C14.4219 14.6173 14.6901 14.3515 14.6925 14.0218C14.6949 13.6906 14.4282 13.42 14.097 13.4173L11.2038 13.396C11.1993 13.396 11.1951 13.396 11.1906 13.396C10.3773 13.396 9.52377 13.9552 9.20127 14.7016L7.59747 18.4135C7.41957 18.8248 7.41657 19.288 7.59027 19.6843C7.75767 20.0674 8.06727 20.3548 8.46237 20.4937C9.26217 20.7754 10.1931 20.3782 10.5828 19.5913L11.469 17.8036C11.5887 17.5618 11.7777 17.4478 11.8605 17.4289C11.8914 17.4931 11.9172 17.662 11.8395 17.8699L10.035 22.7011C10.0173 22.7485 10.0065 22.7977 9.99327 22.8466C7.94307 22.3207 6.88887 21.7576 6.86997 21.7474C6.68397 21.6448 6.45777 21.6481 6.27537 21.7558C6.09267 21.8638 5.98047 22.0603 5.98047 22.2727V24.388C5.98047 24.6067 6.09927 24.8077 6.29067 24.9133C6.44937 25.0009 10.2681 27.0601 17.7618 27.0601C19.0497 27.0601 20.3313 26.9965 21.5721 26.8711C21.9018 26.8378 22.1418 26.5432 22.1088 26.2138C22.0755 25.8844 21.7866 25.6432 21.4515 25.6771C20.2509 25.7986 19.0092 25.8601 17.7618 25.8601C11.7777 25.8601 8.20767 24.4756 7.18047 24.0118V23.2054C8.71767 23.8294 12.234 24.9451 17.7186 24.9451C23.2197 24.9451 27.1686 23.7592 28.818 23.1574V23.9935C28.1253 24.2752 26.3991 24.9043 23.8323 25.3513C23.5059 25.4083 23.2875 25.7191 23.3442 26.0455C23.4012 26.3719 23.7114 26.5891 24.0384 26.5336C27.6021 25.9126 29.5947 24.9685 29.6775 24.9286C29.8854 24.8287 30.018 24.6187 30.018 24.3877V22.2724C30.018 22.069 29.9139 21.8788 29.7426 21.7684ZM13.4439 23.4892L14.106 22.0441C14.2452 21.7399 14.6931 21.4525 15.0279 21.4525H20.0364C20.3601 21.4525 20.7801 21.7366 20.9007 22.0372L21.5034 23.5432C20.3463 23.6671 19.0806 23.7451 17.7183 23.7451C16.1199 23.7448 14.6952 23.6443 13.4439 23.4892Z" fill="#FF9D55"/>
</svg>
