<svg width="24" height="24" viewBox="0 0 24 24" fill="none" xmlns="http://www.w3.org/2000/svg">
<path d="M3.73725 6.65645H3.705C1.99275 6.65645 0.75 5.52095 0.75 3.95645C0.75 2.3897 2.019 1.25195 3.76725 1.25195C5.48625 1.25195 6.71325 2.35895 6.75 3.9437C6.75 5.51945 5.48325 6.65645 3.73725 6.65645ZM3.76725 2.00195C2.43225 2.00195 1.5 2.80595 1.5 3.95645C1.5 5.1047 2.40675 5.9072 3.705 5.9072H3.73725C5.07 5.90645 6 5.1032 6 3.9527C5.97225 2.7707 5.09625 2.00195 3.76725 2.00195Z" fill="white"/>
<path d="M5.625 21.75H1.875C1.668 21.75 1.5 21.582 1.5 21.375V7.875C1.5 7.668 1.668 7.5 1.875 7.5H5.625C5.832 7.5 6 7.668 6 7.875V21.375C6 21.582 5.832 21.75 5.625 21.75ZM2.25 21H5.25V8.25H2.25V21Z" fill="white"/>
<path d="M22.875 21.75H18.375C18.168 21.75 18 21.582 18 21.375V14.25C18 13.0095 16.9905 12 15.75 12C14.5095 12 13.5 13.0095 13.5 14.25V21.375C13.5 21.582 13.332 21.75 13.125 21.75H8.625C8.418 21.75 8.25 21.582 8.25 21.375V7.875C8.25 7.668 8.418 7.5 8.625 7.5H13.125C13.332 7.5 13.5 7.668 13.5 7.875V10.1355C13.5 10.3425 13.332 10.5105 13.125 10.5105C12.918 10.5105 12.75 10.3425 12.75 10.1355V8.25H9V21H12.75V14.25C12.75 12.5955 14.0955 11.25 15.75 11.25C17.4045 11.25 18.75 12.5955 18.75 14.25V21H22.5V13.125C22.5 10.437 20.313 8.25 17.625 8.25C16.587 8.25 15.5835 8.5545 14.7217 9.12975C14.55 9.24375 14.3168 9.19875 14.202 9.02625C14.0873 8.85375 14.133 8.62125 14.3063 8.5065C15.291 7.848 16.4385 7.5 17.625 7.5C20.727 7.5 23.25 10.023 23.25 13.125V21.375C23.25 21.582 23.082 21.75 22.875 21.75Z" fill="white"/>
</svg>
