<svg width="112" height="74" viewBox="0 0 112 74" fill="none" xmlns="http://www.w3.org/2000/svg">
<path d="M41.1409 11.473C56.624 4.16474 71.0448 11.473 71.0448 11.473L85.778 19.111L111.999 32.9021V24.2317L76.7878 5.77546C56.3102 -6.11647 39.3302 4.04193 39.3302 4.04193L0 24.2331V32.9036C0 32.9036 25.4707 45.9093 41.079 53.9615C56.6859 62.0137 72.0437 53.5902 72.0437 53.5902L96.016 41.1143L103.757 45.4152L69.7954 62.879C53.4387 69.3205 39.454 61.5167 39.454 61.5167L0 41.1128V49.2535L39.7059 70.3115C57.9352 78.6107 71.9199 70.3115 71.9199 70.3115L112 49.749V40.8301L72.9174 20.5633C55.5617 11.8171 40.142 20.082 40.142 20.082L15.9192 32.5309L8.24027 28.5055L24.9713 19.7108L41.1409 11.473ZM42.2218 27.8015C55.9561 21.6899 70.5237 27.8015 70.5237 27.8015L87.7542 37.0318L71.2722 45.7222C55.6236 52.9062 41.1395 45.7222 41.1395 45.7222L24.2415 37.0318L42.2218 27.8015Z" fill="#DEB671"/>
</svg>
