<svg width="26" height="24" viewBox="0 0 26 24" fill="none" xmlns="http://www.w3.org/2000/svg">
<path d="M25.3401 0.219713C25.449 0.323711 25.5235 0.455924 25.5543 0.599929C25.585 0.743933 25.5708 0.893383 25.5132 1.02971L16.3585 22.8502C16.2778 23.0424 16.1431 23.2096 15.9691 23.3335C15.7952 23.4573 15.5888 23.5331 15.3726 23.5523C15.1565 23.5715 14.939 23.5335 14.744 23.4425C14.549 23.3514 14.3842 23.2108 14.2676 23.0362L9.26784 15.5437L1.40946 10.7767C1.22589 10.6657 1.07806 10.5085 0.982278 10.3224C0.886496 10.1363 0.846488 9.92866 0.866668 9.72229C0.886848 9.51592 0.966432 9.31887 1.09664 9.1529C1.22685 8.98692 1.40261 8.85847 1.60454 8.78171L24.4906 0.0562129C24.6336 0.00133132 24.7903 -0.0122883 24.9414 0.017046C25.0924 0.0463803 25.2311 0.117376 25.3401 0.221213V0.219713ZM10.8379 15.1057L15.1817 21.6127L22.6279 3.86471L10.8379 15.1057ZM21.5156 2.80421L2.9009 9.90371L9.72723 14.0437L21.5156 2.80421Z" fill="#333333"/>
</svg>
