<svg width="24" height="24" viewBox="0 0 24 24" fill="none" xmlns="http://www.w3.org/2000/svg">
<g clip-path="url(#clip0_509_3788)">
<path d="M24 3C24 1.3 22.7 0 21 0H3C1.3 0 0 1.3 0 3V21C0 22.7 1.3 24 3 24H21C22.7 24 24 22.7 24 21V3ZM22 21C22 21.6 21.6 22 21 22H3C2.4 22 2 21.6 2 21V3C2 2.4 2.4 2 3 2H21C21.6 2 22 2.4 22 3V21ZM14.5 5H6V19H8V14H14.5C17 14 19 12 19 9.5C19 7 17 5 14.5 5ZM14.5 12H8V7H14.5C15.9 7 17 8.1 17 9.5C17 10.9 15.9 12 14.5 12Z" fill="#FF9D55"/>
</g>
<defs>
<clipPath id="clip0_509_3788">
<rect width="24" height="24" fill="white"/>
</clipPath>
</defs>
</svg>
