<svg width="23" height="22" viewBox="0 0 23 22" fill="none" xmlns="http://www.w3.org/2000/svg">
<path d="M21.7617 4.54697L17.8483 0.613639C17.5898 0.356349 17.2398 0.211914 16.875 0.211914C16.5102 0.211914 16.1603 0.356349 15.9017 0.613639L2.02835 14.467L0.761678 19.9336C0.717983 20.1335 0.719481 20.3406 0.766063 20.5397C0.812645 20.7389 0.903134 20.9252 1.03092 21.0849C1.15871 21.2446 1.32056 21.3738 1.50466 21.463C1.68876 21.5522 1.89046 21.5991 2.09501 21.6003C2.19033 21.6099 2.28637 21.6099 2.38168 21.6003L7.90835 20.3336L21.7617 6.49364C22.019 6.23504 22.1634 5.88509 22.1634 5.52031C22.1634 5.15552 22.019 4.80557 21.7617 4.54697ZM7.24168 19.1336L2.06168 20.2203L3.24168 15.1403L13.6217 4.80031L17.6217 8.80031L7.24168 19.1336ZM18.515 7.83364L14.515 3.83364L16.835 1.52697L20.7683 5.52697L18.515 7.83364Z" fill="#333333"/>
</svg>
