<svg width="31" height="30" viewBox="0 0 31 30" fill="none" xmlns="http://www.w3.org/2000/svg">
<path d="M3.29183 30L0.958496 27.6667L18.0418 10.5833C17.5418 9.41667 17.4724 8.09722 17.8335 6.625C18.1946 5.15278 18.9863 3.83333 20.2085 2.66667C21.6807 1.19444 23.3196 0.333333 25.1252 0.0833333C26.9307 -0.166667 28.4029 0.277778 29.5418 1.41667C30.6807 2.55556 31.1252 4.02778 30.8752 5.83333C30.6252 7.63889 29.764 9.27778 28.2918 10.75C27.1252 11.9722 25.8057 12.7639 24.3335 13.125C22.8613 13.4861 21.5418 13.4167 20.3752 12.9167L18.2918 15L30.9585 27.6667L28.6252 30L15.9585 17.4167L3.29183 30ZM8.2085 15.75L3.2085 10.75C1.7085 9.25 0.958496 7.45833 0.958496 5.375C0.958496 3.29167 1.7085 1.5 3.2085 0L13.5418 10.4167L8.2085 15.75Z" fill="#333333"/>
</svg>
