<svg width="35" height="35" viewBox="0 0 35 35" fill="none" xmlns="http://www.w3.org/2000/svg">
<path d="M34.2498 32.4825L24.8098 23.0425C27.0783 20.3191 28.2095 16.8261 27.9681 13.2899C27.7267 9.75372 26.1313 6.44675 23.5138 4.0569C20.8963 1.66706 17.4582 0.37835 13.9147 0.458865C10.3712 0.539379 6.99522 1.98292 4.48895 4.48918C1.98269 6.99545 0.53915 10.3715 0.458636 13.915C0.378121 17.4584 1.66683 20.8965 4.05667 23.5141C6.44652 26.1316 9.75349 27.727 13.2897 27.9683C16.8258 28.2097 20.3189 27.0785 23.0423 24.81L32.4823 34.25L34.2498 32.4825ZM2.99978 14.25C2.99978 12.025 3.65958 9.8499 4.89575 7.99984C6.13191 6.14979 7.88892 4.70785 9.94459 3.85636C12.0003 3.00488 14.2623 2.78209 16.4445 3.21617C18.6268 3.65026 20.6314 4.72172 22.2047 6.29506C23.7781 7.8684 24.8495 9.87296 25.2836 12.0552C25.7177 14.2375 25.4949 16.4995 24.6434 18.5552C23.7919 20.6109 22.35 22.3679 20.4999 23.604C18.6499 24.8402 16.4748 25.5 14.2498 25.5C11.2671 25.4967 8.40755 24.3104 6.29848 22.2013C4.18941 20.0922 3.00309 17.2327 2.99978 14.25Z" fill="#141414"/>
</svg>
