<svg width="24" height="24" viewBox="0 0 24 24" fill="none" xmlns="http://www.w3.org/2000/svg">
<path d="M22.9821 10.3278L22.9825 10.3274C23.4951 9.83554 23.2305 8.95678 22.4869 8.84918L22.9821 10.3278ZM22.9821 10.3278L19.0406 14.1151L19.0404 14.1153C18.4749 14.6591 18.2146 15.4446 18.3493 16.2181C18.3493 16.2182 18.3493 16.2182 18.3493 16.2183L19.2794 21.5644C19.3988 22.2539 18.6546 22.8268 17.9819 22.4771L17.9813 22.4767L13.1097 19.9506C12.4152 19.5902 11.5859 19.5906 10.8911 19.9501L10.8905 19.9505L6.01875 22.4767L6.01807 22.4771C5.34497 22.827 4.6019 22.2537 4.72186 21.5652L4.72193 21.5648L5.65066 16.2183C5.65068 16.2182 5.65071 16.218 5.65073 16.2179C5.78537 15.4445 5.52507 14.659 4.95958 14.1153L4.9594 14.1151L1.01789 10.3278L1.01751 10.3274C0.504875 9.83554 0.769487 8.95678 1.51307 8.84918C1.51318 8.84917 1.51329 8.84915 1.51339 8.84914L6.96337 8.06466C6.96346 8.06465 6.96354 8.06463 6.96363 8.06462C6.96366 8.06462 6.96369 8.06461 6.96372 8.06461C7.7383 7.95337 8.4132 7.47241 8.7634 6.77161L11.1983 1.90444C11.5243 1.25321 12.4757 1.25321 12.8017 1.90444L15.238 6.77161C15.5878 7.47163 16.2608 7.95325 17.0363 8.06461C17.0364 8.06462 17.0364 8.06463 17.0365 8.06465C17.0366 8.06465 17.0366 8.06465 17.0366 8.06466L22.4866 8.84914L22.9821 10.3278Z" stroke="#FF9D55" stroke-width="1.5" stroke-linecap="round" stroke-linejoin="round"/>
</svg>
