<svg width="16" height="16" viewBox="0 0 16 16" fill="none" xmlns="http://www.w3.org/2000/svg">
<path d="M10.6602 2.84375C11.3135 2.84375 11.9434 3.11621 12.3887 3.59375L12.5674 3.78418L12.8223 3.73438C12.9541 3.70801 13.083 3.67871 13.2119 3.64355C13.1826 3.68457 13.0449 3.82227 12.8896 3.95996C12.7578 4.07715 12.3682 4.44336 12.3682 4.44336C12.3682 4.44336 12.749 4.56348 12.9863 4.58984C13.2236 4.61621 13.4961 4.57227 13.54 4.56641C13.458 4.63379 13.3115 4.73633 13.2236 4.79785L13.0186 4.94727L13.0303 5.19922C13.0361 5.31055 13.0391 5.42773 13.0391 5.54492C13.0391 6.42969 12.8662 7.35547 12.541 8.22559C12.1982 9.13965 11.7061 9.96582 11.0762 10.6807C10.4023 11.4453 9.60547 12.043 8.70019 12.4619C7.70996 12.9219 6.61133 13.1533 5.43359 13.1533C4.58691 13.1533 3.75195 13.0127 2.95801 12.7373C3.24805 12.6816 3.53223 12.6025 3.81055 12.5059C4.44629 12.2832 5.03809 11.958 5.57129 11.5391L6.60547 10.7275L5.29004 10.7041C4.52539 10.6895 3.83398 10.3115 3.40625 9.71094C3.62012 9.69629 3.83105 9.6582 4.03613 9.60254L5.81445 9.01074L4.00684 8.69141C3.13965 8.51855 2.45996 7.87402 2.21094 7.05664C2.43945 7.11523 2.66211 7.13867 2.91113 7.15332C2.91113 7.15332 3.84277 7.19434 4.5459 7.15039C4.16504 6.96875 3.18652 6.29492 3.18652 6.29492C2.52734 5.85254 2.13184 5.11719 2.13184 4.32031C2.13184 4.13281 2.15527 3.94531 2.19629 3.76367C2.83789 4.41992 3.57324 4.96777 4.39648 5.38965C5.48047 5.94922 6.64941 6.2627 7.87109 6.32422L8.49219 6.35645L8.35156 5.75C8.31055 5.57715 8.29004 5.39551 8.29004 5.20801C8.29004 3.90723 9.35351 2.84375 10.6602 2.84375ZM10.6602 2.375C9.09277 2.375 7.82422 3.64648 7.82422 5.21387C7.82422 5.43652 7.84766 5.65332 7.89746 5.86133C5.53906 5.74414 3.44727 4.61328 2.0498 2.89355C1.80664 3.3125 1.66602 3.80176 1.66602 4.32031C1.66602 5.30469 2.16699 6.1748 2.92871 6.68457C2.46289 6.67285 2.02344 6.54395 1.64258 6.33008C1.64258 6.3418 1.64258 6.35352 1.64258 6.36523C1.64258 7.74219 2.62109 8.8877 3.91895 9.14844C3.68164 9.21289 3.42969 9.24805 3.17188 9.24805C2.99023 9.24805 2.81152 9.23047 2.63867 9.19531C2.99902 10.3232 4.04785 11.1436 5.29004 11.167C4.32031 11.9287 3.0957 12.3828 1.76562 12.3828C1.53711 12.3828 1.31152 12.3682 1.08887 12.3418C2.34277 13.1562 3.83398 13.625 5.43359 13.625C10.6543 13.625 13.5078 9.29785 13.5078 5.54492C13.5078 5.42188 13.5049 5.29883 13.499 5.17871C14.0527 4.77734 14.5332 4.2793 14.9141 3.70801C14.4043 3.93359 13.8594 4.08594 13.2852 4.15625C13.8711 3.80469 14.3223 3.24805 14.5332 2.58594C13.9854 2.91113 13.3789 3.14844 12.7314 3.27441C12.2129 2.7207 11.4746 2.375 10.6602 2.375Z" fill="#333333"/>
</svg>
