<svg width="24" height="24" viewBox="0 0 24 24" fill="none" xmlns="http://www.w3.org/2000/svg">
<path d="M16.2564 3.75C17.3018 3.75 18.3096 4.18594 19.0221 4.95L19.308 5.25469L19.7158 5.175C19.9268 5.13281 20.133 5.08594 20.3393 5.02969C20.2924 5.09531 20.0721 5.31562 19.8236 5.53594C19.6127 5.72344 18.9893 6.30938 18.9893 6.30938C18.9893 6.30938 19.5986 6.50156 19.9783 6.54375C20.358 6.58594 20.7939 6.51563 20.8643 6.50625C20.733 6.61406 20.4986 6.77812 20.358 6.87656L20.0299 7.11563L20.0486 7.51875C20.058 7.69687 20.0627 7.88437 20.0627 8.07187C20.0627 9.4875 19.7861 10.9688 19.2658 12.3609C18.7174 13.8234 17.9299 15.1453 16.9221 16.2891C15.8439 17.5125 14.5689 18.4687 13.1205 19.1391C11.5361 19.875 9.77832 20.2453 7.89394 20.2453C6.53926 20.2453 5.20332 20.0203 3.93301 19.5797C4.39707 19.4906 4.85176 19.3641 5.29707 19.2094C6.31426 18.8531 7.26113 18.3328 8.11426 17.6625L9.76894 16.3641L7.66426 16.3266C6.44082 16.3031 5.33457 15.6984 4.6502 14.7375C4.99238 14.7141 5.32988 14.6531 5.65801 14.5641L8.50332 13.6172L5.61113 13.1063C4.22363 12.8297 3.13613 11.7984 2.7377 10.4906C3.10332 10.5844 3.45957 10.6219 3.85801 10.6453C3.85801 10.6453 5.34863 10.7109 6.47363 10.6406C5.86426 10.35 4.29863 9.27188 4.29863 9.27188C3.24395 8.56406 2.61113 7.3875 2.61113 6.1125C2.61113 5.8125 2.64863 5.5125 2.71426 5.22188C3.74082 6.27188 4.91738 7.14844 6.23457 7.82344C7.96895 8.71875 9.83926 9.22031 11.7939 9.31875L12.7877 9.37031L12.5627 8.4C12.4971 8.12344 12.4643 7.83281 12.4643 7.53281C12.4643 5.45156 14.1658 3.75 16.2564 3.75ZM16.2564 3C13.7486 3 11.7189 5.03437 11.7189 7.54219C11.7189 7.89844 11.7564 8.24531 11.8361 8.57812C8.0627 8.39062 4.71582 6.58125 2.47988 3.82969C2.09082 4.5 1.86582 5.28281 1.86582 6.1125C1.86582 7.6875 2.66738 9.07969 3.88613 9.89531C3.14082 9.87656 2.4377 9.67031 1.82832 9.32812C1.82832 9.34688 1.82832 9.36562 1.82832 9.38437C1.82832 11.5875 3.39395 13.4203 5.47051 13.8375C5.09082 13.9406 4.6877 13.9969 4.2752 13.9969C3.98457 13.9969 3.69863 13.9687 3.42207 13.9125C3.99863 15.7172 5.67676 17.0297 7.66426 17.0672C6.1127 18.2859 4.15332 19.0125 2.0252 19.0125C1.65957 19.0125 1.29863 18.9891 0.942383 18.9469C2.94863 20.25 5.33457 21 7.89394 21C16.2471 21 20.8127 14.0766 20.8127 8.07187C20.8127 7.875 20.808 7.67812 20.7986 7.48594C21.6846 6.84375 22.4533 6.04688 23.0627 5.13281C22.2471 5.49375 21.3752 5.7375 20.4564 5.85C21.3939 5.2875 22.1158 4.39687 22.4533 3.3375C21.5768 3.85781 20.6064 4.2375 19.5705 4.43906C18.7408 3.55312 17.5596 3 16.2564 3Z" fill="white"/>
</svg>
