<svg width="84" height="76" viewBox="0 0 84 76" fill="none" xmlns="http://www.w3.org/2000/svg">
<path d="M73.875 9.96889H62.8383L57.4195 1.6017C57.1312 1.14422 56.7354 0.769045 56.2688 0.510935C55.8021 0.252825 55.2797 0.120128 54.75 0.125137H29.25C28.7203 0.120128 28.1979 0.252825 27.7313 0.510935C27.2646 0.769045 26.8688 1.14422 26.5805 1.6017L21.1617 9.96889H10.125C7.5921 9.97968 5.16593 11.0203 3.37488 12.864C1.58383 14.7077 0.572988 17.2052 0.5625 19.8126V65.7501C0.572988 68.3575 1.58383 70.8551 3.37488 72.6988C5.16593 74.5425 7.5921 75.5831 10.125 75.5939H73.875C76.4079 75.5831 78.8341 74.5425 80.6251 72.6988C82.4162 70.8551 83.427 68.3575 83.4375 65.7501V19.8126C83.427 17.2052 82.4162 14.7077 80.6251 12.864C78.8341 11.0203 76.4079 9.97968 73.875 9.96889ZM77.0625 65.7501C77.0625 66.6204 76.7267 67.455 76.1289 68.0703C75.5311 68.6857 74.7204 69.0314 73.875 69.0314H10.125C9.27962 69.0314 8.46887 68.6857 7.8711 68.0703C7.27333 67.455 6.9375 66.6204 6.9375 65.7501V19.8126C6.9375 18.9424 7.27333 18.1078 7.8711 17.4924C8.46887 16.8771 9.27962 16.5314 10.125 16.5314H22.875C23.4047 16.5364 23.9271 16.4037 24.3937 16.1456C24.8604 15.8875 25.2562 15.5123 25.5445 15.0548L30.9633 6.68764H53.0367L58.4555 15.0548C58.7438 15.5123 59.1396 15.8875 59.6062 16.1456C60.0729 16.4037 60.5953 16.5364 61.125 16.5314H73.875C74.7204 16.5314 75.5311 16.8771 76.1289 17.4924C76.7267 18.1078 77.0625 18.9424 77.0625 19.8126V65.7501ZM42 23.0939C38.5326 23.0939 35.1432 24.1523 32.2602 26.1353C29.3772 28.1184 27.1301 30.9369 25.8032 34.2345C24.4763 37.5322 24.1292 41.1608 24.8056 44.6615C25.4821 48.1623 27.1517 51.3779 29.6035 53.9018C32.0553 56.4257 35.1791 58.1445 38.5798 58.8409C41.9806 59.5372 45.5055 59.1798 48.7089 57.8139C51.9123 56.448 54.6503 54.1349 56.5767 51.1671C58.5031 48.1993 59.5312 44.7101 59.5312 41.1408C59.5312 36.3544 57.6842 31.7641 54.3965 28.3797C51.1087 24.9953 46.6496 23.0939 42 23.0939ZM42 52.6251C39.7935 52.6251 37.6366 51.9516 35.8019 50.6897C33.9673 49.4278 32.5374 47.6341 31.693 45.5356C30.8486 43.4371 30.6276 41.128 31.0581 38.9003C31.4886 36.6725 32.5511 34.6262 34.1113 33.0201C35.6716 31.414 37.6594 30.3202 39.8235 29.8771C41.9876 29.4339 44.2308 29.6614 46.2693 30.5306C48.3078 31.3998 50.0502 32.8718 51.2761 34.7604C52.5019 36.649 53.1562 38.8694 53.1562 41.1408C53.1458 44.1833 51.967 47.0981 49.8771 49.2495C47.7871 51.4009 44.9556 52.6143 42 52.6251Z" fill="#FF9D55"/>
</svg>
