<svg width="22" height="16" viewBox="0 0 22 16" fill="none" xmlns="http://www.w3.org/2000/svg">
<path d="M21.8485 2.89333C21.8505 2.6311 21.7791 2.37354 21.6424 2.14972C21.5058 1.9259 21.3093 1.74473 21.0751 1.62667C20.8532 1.50748 20.602 1.45361 20.3507 1.47131C20.0994 1.48901 19.8582 1.57754 19.6551 1.72667L16.5151 3.73333V1.33333C16.5151 0.979711 16.3747 0.640573 16.1246 0.390524C15.8746 0.140476 15.5354 0 15.1818 0H3.1818C2.47456 0 1.79628 0.280951 1.29619 0.781048C0.796088 1.28115 0.515137 1.95942 0.515137 2.66667V13.3333C0.515137 14.0406 0.796088 14.7189 1.29619 15.219C1.79628 15.719 2.47456 16 3.1818 16H15.1818C15.5354 16 15.8746 15.8595 16.1246 15.6095C16.3747 15.3594 16.5151 15.0203 16.5151 14.6667V12.2667L19.6085 14.2667C19.8154 14.4251 20.063 14.5217 20.3225 14.5453C20.5821 14.5689 20.843 14.5185 21.0751 14.4C21.3134 14.28 21.5127 14.0946 21.6496 13.8656C21.7865 13.6366 21.8555 13.3734 21.8485 13.1067V2.89333ZM20.4685 13.18C20.4285 13.18 20.3951 13.18 20.3418 13.14L15.1818 9.84667V14.6667H3.1818C2.82818 14.6667 2.48904 14.5262 2.23899 14.2761C1.98895 14.0261 1.84847 13.687 1.84847 13.3333V2.66667C1.84847 2.31304 1.98895 1.97391 2.23899 1.72386C2.48904 1.47381 2.82818 1.33333 3.1818 1.33333H15.1818V6.15333L20.3818 2.82C20.3944 2.81079 20.4096 2.80583 20.4251 2.80583C20.4407 2.80583 20.4559 2.81079 20.4685 2.82C20.4831 2.82565 20.4954 2.83581 20.5038 2.84901C20.5122 2.8622 20.5162 2.87773 20.5151 2.89333V13.1067C20.5162 13.1223 20.5122 13.1378 20.5038 13.151C20.4954 13.1642 20.4831 13.1743 20.4685 13.18Z" fill="black"/>
</svg>
