<svg width="24" height="24" viewBox="0 0 24 24" fill="none" xmlns="http://www.w3.org/2000/svg">
<path d="M16.0723 17.1428C15.8621 17.1419 15.6596 17.0638 15.5032 16.9234C14.5351 16.0705 13.2893 15.6 11.9992 15.6C10.709 15.6 9.4632 16.0705 8.49517 16.9234C8.41264 17.0072 8.31375 17.0731 8.20465 17.117C8.09555 17.1609 7.97857 17.1819 7.861 17.1787C7.74343 17.1755 7.62778 17.1481 7.52125 17.0983C7.41472 17.0484 7.31958 16.9772 7.24177 16.889C7.16395 16.8008 7.10512 16.6975 7.06893 16.5856C7.03274 16.4737 7.01997 16.3556 7.03141 16.2385C7.04285 16.1215 7.07826 16.008 7.13543 15.9052C7.19261 15.8024 7.27032 15.7125 7.36374 15.6411C8.64328 14.5106 10.2918 13.8867 11.9992 13.8867C13.7065 13.8867 15.3551 14.5106 16.6346 15.6411C16.7655 15.7558 16.8584 15.9077 16.9009 16.0766C16.9433 16.2454 16.9334 16.4232 16.8723 16.5862C16.8113 16.7492 16.702 16.8898 16.5591 16.9893C16.4162 17.0887 16.2464 17.1422 16.0723 17.1428Z" fill="#FF9D55"/>
<path d="M19.5428 13.2137C19.4244 13.2145 19.3071 13.1904 19.1984 13.1432C19.0898 13.096 18.9922 13.0266 18.912 12.9394C18.0327 11.9826 16.9643 11.2188 15.7745 10.6963C14.5847 10.1738 13.2994 9.90401 12 9.90401C10.7005 9.90401 9.41519 10.1738 8.2254 10.6963C7.0356 11.2188 5.96725 11.9826 5.08797 12.9394C4.93199 13.0973 4.72087 13.1885 4.49901 13.1939C4.27716 13.1993 4.06187 13.1184 3.89842 12.9683C3.73498 12.8182 3.63613 12.6105 3.62267 12.389C3.60921 12.1675 3.68219 11.9494 3.82625 11.7806C4.8661 10.6492 6.12949 9.74604 7.53646 9.12822C8.94342 8.51041 10.4633 8.19141 12 8.19141C13.5366 8.19141 15.0565 8.51041 16.4635 9.12822C17.8704 9.74604 19.1338 10.6492 20.1737 11.7806C20.3266 11.9473 20.4073 12.1678 20.3984 12.3939C20.3894 12.62 20.2913 12.8333 20.1257 12.9874C19.9665 13.133 19.7585 13.2137 19.5428 13.2137Z" fill="#FF9D55"/>
<path d="M1.02849 9.34646C0.817538 9.34964 0.613558 9.271 0.459342 9.12703C0.375079 9.05262 0.306406 8.96224 0.257298 8.86112C0.20819 8.76 0.179621 8.65014 0.173244 8.53791C0.166867 8.42567 0.182809 8.31329 0.220147 8.20726C0.257485 8.10122 0.315478 8.00365 0.390771 7.92017C1.85205 6.28738 3.64133 4.9812 5.64175 4.08695C7.64216 3.19269 9.80872 2.73047 11.9999 2.73047C14.1911 2.73047 16.3577 3.19269 18.3581 4.08695C20.3585 4.9812 22.1478 6.28738 23.6091 7.92017C23.7568 8.08992 23.8318 8.31096 23.818 8.53556C23.8042 8.76016 23.7026 8.97032 23.5351 9.12065C23.3677 9.27099 23.1478 9.34945 22.923 9.3391C22.6982 9.32874 22.4865 9.23041 22.3336 9.06531C21.0331 7.61154 19.4405 6.44852 17.6598 5.65227C15.8791 4.85602 13.9505 4.44444 11.9999 4.44444C10.0493 4.44444 8.12068 4.85602 6.34001 5.65227C4.55934 6.44852 2.96671 7.61154 1.6662 9.06531C1.58499 9.15356 1.48643 9.22408 1.37669 9.27246C1.26696 9.32084 1.14841 9.34603 1.02849 9.34646Z" fill="#FF9D55"/>
<path d="M11.9997 21.2573C12.227 21.2573 12.4451 21.1669 12.6058 21.0062C12.7666 20.8455 12.8569 20.6274 12.8569 20.4001C12.8569 20.1728 12.7666 19.9548 12.6058 19.794C12.4451 19.6333 12.227 19.543 11.9997 19.543C11.7724 19.543 11.5544 19.6333 11.3936 19.794C11.2329 19.9548 11.1426 20.1728 11.1426 20.4001C11.1426 20.6274 11.2329 20.8455 11.3936 21.0062C11.5544 21.1669 11.7724 21.2573 11.9997 21.2573Z" fill="#FF9D55"/>
</svg>
